<?xml version="1.0" encoding="UTF-8" standalone="no"?>
<!-- Created with Inkscape (http://www.inkscape.org/) -->

<svg
   width="100mm"
   height="50mm"
   viewBox="0 0 100 50"
   version="1.1"
   id="svg1"
   xml:space="preserve"
   xmlns="http://www.w3.org/2000/svg"
   xmlns:svg="http://www.w3.org/2000/svg"><defs
     id="defs1" /><g
     id="layer1"><path
       d="M 16.834396,18.79454 V 9.6788248 H 13.423754 V 8.5970657 h 8.268223 V 9.6788248 H 18.281335 V 18.79454 Z m 8.695414,0.172255 q -1.605413,0 -2.563149,-1.061089 -0.957736,-1.067978 -0.957736,-2.852536 0,-1.805229 0.957736,-2.852537 0.964626,-1.054199 2.611381,-1.054199 1.646754,0 2.60449,1.054199 0.964626,1.047308 0.964626,2.838756 0,1.83279 -0.964626,2.880098 -0.964626,1.047308 -2.652722,1.047308 z m 0.02067,-1.019747 q 2.156628,0 2.156628,-2.907659 0,-2.873207 -2.129067,-2.873207 -2.122178,0 -2.122178,2.886988 0,2.893878 2.094617,2.893878 z M 24.558294,9.9544322 26.218829,7.7426826 h 1.570962 l -2.211749,2.2117496 z m 6.711042,8.8401078 v -7.482741 h 1.357366 v 1.405598 q 0.992187,-1.570963 2.549369,-1.570963 1.50206,0 2.046385,1.570963 0.964626,-1.577853 2.508028,-1.577853 0.992186,0 1.536511,0.585666 0.544325,0.578776 0.544325,1.626084 v 5.443246 h -1.364257 v -5.22965 q 0,-1.281575 -1.012857,-1.281575 -1.054199,0 -2.21175,1.49517 v 5.016055 h -1.364257 v -5.22965 q 0,-1.288465 -1.033527,-1.288465 -1.026638,0 -2.19797,1.50206 v 5.016055 z m 17.032538,-0.950845 q -1.219563,1.1231 -2.349553,1.1231 -0.930176,0 -1.543402,-0.578776 -0.613227,-0.585665 -0.613227,-1.474499 0,-1.226453 1.026638,-1.881021 1.033528,-0.661458 2.95589,-0.661458 h 0.323838 v -0.902614 q 0,-1.302245 -1.336696,-1.302245 -1.074869,0 -2.321992,0.661458 v -1.123101 q 1.371147,-0.558105 2.570039,-0.558105 1.254014,0 1.84657,0.564996 0.599446,0.564995 0.599446,1.756997 v 3.389971 q 0,1.164442 0.716579,1.164442 0.08957,0 0.261827,-0.02756 l 0.09646,0.75103 q -0.461642,0.220486 -1.019747,0.220486 -0.950846,0 -1.212673,-1.1231 z m -0.199816,-0.73725 v -1.936142 l -0.454752,-0.01378 q -1.11621,0 -1.805228,0.427192 -0.689019,0.420301 -0.689019,1.10932 0,0.489203 0.344509,0.826822 0.34451,0.337619 0.840603,0.337619 0.847493,0 1.763887,-0.751031 z m 5.829098,1.86035 q -0.930175,0 -2.25998,-0.434082 V 17.28559 q 1.329805,0.661458 2.315102,0.661458 0.585666,0 0.971516,-0.316949 0.385851,-0.316949 0.385851,-0.792371 0,-0.695909 -1.08176,-1.150661 l -0.792371,-0.337619 q -1.756997,-0.73036 -1.756997,-2.101507 0,-0.978406 0.689018,-1.536511 0.695909,-0.564996 1.901691,-0.564996 0.627007,0 1.550292,0.172255 l 0.282498,0.05512 V 12.5038 q -1.136881,-0.337619 -1.805229,-0.337619 -1.309135,0 -1.309135,0.950845 0,0.613227 0.992187,1.033528 l 0.654567,0.275608 q 1.10932,0.468532 1.570963,0.992186 0.461642,0.516764 0.461642,1.295355 0,0.985297 -0.778591,1.619194 -0.778591,0.633897 -1.991264,0.633898 z m 13.36007,0.08268 q -2.122178,0 -3.417532,-1.467609 -1.288465,-1.4745 -1.288465,-3.892955 0,-2.432236 1.295355,-3.8860649 1.302245,-1.4607193 3.472653,-1.4607193 2.163519,0 3.465764,1.4538292 1.302245,1.453829 1.302245,3.879174 0,2.473577 -1.302245,3.927406 -1.302245,1.446939 -3.527775,1.446939 z m 0.02067,-1.081759 q 1.564072,0 2.418455,-1.1231 0.854383,-1.129991 0.854383,-3.183266 0,-1.991264 -0.861273,-3.114364 -0.854383,-1.1231001 -2.370224,-1.1231001 -1.522731,0 -2.377114,1.1299901 -0.854383,1.123101 -0.854383,3.128145 0,1.998153 0.847493,3.141924 0.847493,1.143771 2.342663,1.143771 z M 74.1883,18.79454 v -7.482741 h 1.357367 v 1.405598 q 0.806151,-1.570963 2.342663,-1.570963 0.206705,0 0.434082,0.03445 v 1.267794 q -0.3514,-0.117133 -0.620117,-0.117133 -1.288465,0 -2.156628,1.529621 v 4.933373 z m 5.773976,0 v -7.482741 h 1.357366 v 1.405598 q 0.806152,-1.570963 2.342663,-1.570963 0.206706,0 0.434082,0.03445 v 1.267794 q -0.3514,-0.117133 -0.620117,-0.117133 -1.288465,0 -2.156628,1.529621 v 4.933373 z m 5.773979,0 v -7.482741 h 1.357366 v 7.482741 z m 0,-8.8401078 V 8.5970657 h 1.357366 v 1.3573665 z"
       id="path53"
       style="font-weight:500;font-size:14.1111px;font-family:'.Lucida Grande UI';-inkscape-font-specification:'.Lucida Grande UI Medium';fill:none;stroke:#000000;stroke-width:0.02;fill-opacity:1;stroke-dasharray:none" /><path
       d="m 15.745747,31.148643 q 0.971516,-1.260904 2.446015,-1.260904 0.695909,0 1.254014,0.254937 0.564995,0.248047 0.957736,0.682129 0.399631,0.427191 0.613227,0.999076 0.213595,0.571886 0.213595,1.219563 0,0.757921 -0.248046,1.426269 -0.248047,0.661458 -0.695909,1.157551 -0.440972,0.489203 -1.061089,0.778591 -0.620116,0.282498 -1.371147,0.282498 -0.702799,0 -1.247123,-0.220486 -0.537435,-0.213596 -0.937066,-0.585666 -0.39963,-0.37896 -0.668348,-0.875054 -0.268717,-0.502983 -0.434081,-1.074869 -0.165365,-0.571885 -0.234267,-1.178221 -0.0689,-0.606337 -0.0689,-1.192003 0,-0.737249 0.08957,-1.433158 0.09646,-0.702799 0.303168,-1.322916 0.206706,-0.620117 0.530545,-1.13688 0.323838,-0.523655 0.785481,-0.895725 0.468532,-0.37896 1.074869,-0.585665 0.613226,-0.213596 1.384927,-0.213596 0.268717,0 0.578776,0.02756 0.310058,0.02756 0.613226,0.08268 0.310058,0.04823 0.592556,0.117133 0.282498,0.0689 0.489203,0.158474 v 1.185112 q -0.661458,-0.296278 -1.226453,-0.420301 -0.564995,-0.130914 -1.12999,-0.130914 -2.60449,0 -2.60449,4.154782 z m 4.120331,2.197969 q 0,-0.475422 -0.124024,-0.909504 -0.117133,-0.440972 -0.358289,-0.771701 -0.241157,-0.330729 -0.613227,-0.530544 -0.36518,-0.199815 -0.868163,-0.199815 -0.427192,0 -0.806152,0.165364 -0.37896,0.165364 -0.661458,0.461642 -0.275607,0.296278 -0.440972,0.70969 -0.158474,0.413411 -0.158474,0.909504 0,0.496093 0.137804,0.950846 0.144694,0.447862 0.413411,0.792371 0.268717,0.337619 0.661458,0.544325 0.39274,0.199815 0.902614,0.199815 0.509874,0 0.868163,-0.206706 0.36518,-0.206705 0.599446,-0.537434 0.234267,-0.330729 0.33762,-0.74414 0.110243,-0.420301 0.110243,-0.833713 z m 4.499291,3.086804 v -1.019748 h 2.039495 v -8.047737 l -2.039495,0.509874 v -1.047308 l 3.403752,-0.847493 v 9.432664 h 2.039495 v 1.019748 z m 8.92279,0 v -1.019748 h 2.039495 v -8.047737 l -2.039495,0.509874 v -1.047308 l 3.403752,-0.847493 v 9.432664 h 2.039495 v 1.019748 z m 7.820361,-3.569117 v -1.019747 h 6.118485 v 1.019747 z m 9.267301,3.569117 q 0.199816,-1.192002 0.564995,-2.060166 0.37207,-0.868163 1.309136,-2.384004 l 2.783635,-4.478621 h -5.250322 v -1.274684 h 6.545677 v 1.274684 q -3.920516,5.780866 -4.389049,8.922791 z m 8.447368,0.04134 v -1.212673 q 1.019747,0.406521 1.929252,0.406521 0.502983,0 0.964626,-0.144694 0.461642,-0.151584 0.75103,-0.447862 0.578776,-0.585666 0.578776,-1.632974 0,-0.571885 -0.220486,-0.999077 -0.220486,-0.434082 -0.640788,-0.716579 -0.420301,-0.289388 -1.033527,-0.434082 -0.613227,-0.144694 -1.405598,-0.144694 -0.179145,0 -0.36518,0.01378 -0.186035,0.0069 -0.38585,0.03445 v -4.960934 h 5.298552 v 1.185112 h -4.10655 v 2.687172 q 0.985296,0 1.812118,0.227376 0.833713,0.220486 1.391818,0.675239 1.10243,0.895724 1.10243,2.501137 0,1.48828 -1.005967,2.335773 -0.502984,0.420301 -1.260904,0.627007 -0.757921,0.213596 -1.653645,0.213596 -0.785481,0 -1.750107,-0.213596 z m 8.640293,-0.117133 v -1.267795 q 1.453829,0.578776 2.301322,0.578776 0.489203,0 0.943955,-0.137804 0.461643,-0.137803 0.771701,-0.427191 0.613227,-0.571886 0.613227,-1.4745 0,-0.537434 -0.213596,-0.937065 -0.206706,-0.406521 -0.613227,-0.675238 -0.39963,-0.268718 -0.985296,-0.399631 -0.585666,-0.137804 -1.336696,-0.137804 h -0.537435 v -0.916395 h 0.475423 q 1.412488,-0.0069 2.184189,-0.502983 0.778591,-0.496093 0.778591,-1.49517 0,-0.778591 -0.537435,-1.171332 -0.530544,-0.39274 -1.460719,-0.39274 -1.005967,0 -2.2462,0.571885 v -1.185112 q 1.219562,-0.406521 2.342663,-0.406521 1.564072,0 2.411565,0.592556 0.854383,0.585666 0.854383,1.770778 0,1.798338 -2.129068,2.563149 2.466687,0.564995 2.466687,2.700953 0,1.446939 -0.950846,2.25998 -0.475423,0.413412 -1.198892,0.613227 -0.71658,0.206706 -1.550292,0.206706 -0.950846,0 -2.384004,-0.330729 z m 8.729865,0.07579 v -1.192002 q 0.592556,-1.384928 2.397785,-3.017902 L 79.369723,31.5276 q 1.50206,-1.357366 1.50206,-2.694062 0,-0.854383 -0.516764,-1.343586 -0.509873,-0.489203 -1.405598,-0.489203 -1.061088,0 -2.501137,0.819932 v -1.198893 q 1.357367,-0.640787 2.694063,-0.640787 1.433158,0 2.301322,0.771701 0.868163,0.771701 0.868163,2.046385 0,0.916395 -0.440972,1.626084 -0.434082,0.709689 -1.626084,1.722546 l -0.523654,0.447862 q -1.632974,1.384928 -1.887911,2.645832 h 4.43039 v 1.192002 z"
       id="path54"
       style="font-weight:500;font-size:14.1111px;font-family:'.Lucida Grande UI';-inkscape-font-specification:'.Lucida Grande UI Medium';fill:none;stroke:#000000;stroke-width:0.02;fill-opacity:1;stroke-dasharray:none" /></g></svg>
